<?xml version="1.0" encoding="UTF-8"?>
<svg width="128px" height="128px" viewBox="0 0 128 128" version="1.1" xmlns="http://www.w3.org/2000/svg" xmlns:xlink="http://www.w3.org/1999/xlink">
    <!-- Generator: Sketch 53 (72520) - https://sketchapp.com -->
    <title>FFA</title>
    <desc>Created with Sketch.</desc>
    <g id="FFA" stroke="none" stroke-width="1" fill="none" fill-rule="evenodd">
        <path d="M37.6438356,58.2191781 C41.8372217,58.2191781 45.2465753,54.8098245 45.2465753,50.6164384 C45.2465753,46.4230522 41.8372217,43.0136986 37.6438356,43.0136986 C33.4504495,43.0136986 30.0410959,46.4230522 30.0410959,50.6164384 C30.0410959,54.8098245 33.4504495,58.2191781 37.6438356,58.2191781 Z M89.3424658,58.2191781 C93.5358519,58.2191781 96.9452055,54.8098245 96.9452055,50.6164384 C96.9452055,46.4230522 93.5358519,43.0136986 89.3424658,43.0136986 C85.1490796,43.0136986 81.739726,46.4230522 81.739726,50.6164384 C81.739726,54.8098245 85.1490796,58.2191781 89.3424658,58.2191781 Z M93.8789282,61.260274 L86.7578563,61.260274 C84.7995616,61.260274 83.0304203,62.1037029 81.739726,63.4698202 C86.2237759,66.0951413 89.4060049,70.8349743 90.0958588,76.4657534 L97.4394641,76.4657534 C99.4088855,76.4657534 101,74.7670163 101,72.6643836 L101,68.8630137 C101,64.6696276 97.8066444,61.260274 93.8789282,61.260274 Z M64.1506849,64.3013699 C70.3134295,64.3013699 75.3013699,59.3134295 75.3013699,53.1506849 C75.3013699,46.9879403 70.3134295,42 64.1506849,42 C57.9879403,42 53,46.9879403 53,53.1506849 C53,59.3134295 57.9879403,64.3013699 64.1506849,64.3013699 Z M71.9643836,68 L71.131778,68 C69.0452483,68.9503425 66.7279966,69.5205479 64.260274,69.5205479 C61.7925514,69.5205479 59.4853311,68.9503425 57.38877,68 L56.5561644,68 C50.1761986,68 45,72.9037671 45,78.9479452 L45,81.6849315 C45,84.203339 47.1567494,86.2465753 49.8150685,86.2465753 L78.7054795,86.2465753 C81.3637985,86.2465753 83.5205479,84.203339 83.5205479,81.6849315 L83.5205479,78.9479452 C83.5205479,72.9037671 78.3443493,68 71.9643836,68 Z M46.260274,63.4698202 C44.9695797,62.1037029 43.2004384,61.260274 41.2421437,61.260274 L34.1210718,61.260274 C30.1933556,61.260274 27,64.6696276 27,68.8630137 L27,72.6643836 C27,74.7670163 28.5911145,76.4657534 30.5605359,76.4657534 L37.8930146,76.4657534 C38.5939951,70.8349743 41.7762241,66.0951413 46.260274,63.4698202 Z" id="Shape" fill="#808080" fill-rule="nonzero"></path>
    </g>
</svg>